:FULLY-SPECIFIED
:FORCE-ALL-JOINTS-BE-3DOF
:DEGREES
1
root -2.95645 16.8291 -36.2757 3.79203 -0.409345 -2.77144
lfemur -18.1857 -3.85478 -7.37129
ltibia 37.6337 0 0
lfoot -17.8071 6.78532 0
ltoes -26.1578 0 0
rfemur -19.1521 0.15077 14.7318
rtibia 40.3652 0 0
rfoot -23.1652 -2.86285 0
rtoes -21.0274 0 0
lowerback 7.02591 2.55716 -1.97249
upperback -3.14202 3.31583 1.27229
thorax -7.43554 1.75645 1.99661
lowerneck -4.68188 -4.04088 -6.84108
upperneck 4.69893 -5.30737 6.47589
head 2.76948 -2.5844 3.14763
lclavicle 1.91563e-15 -9.24349e-15 0
lhumerus -27.0689 -5.33108 89.6453
lradius 25.7364 0 0
lwrist -30.6252 0 0
lhand -28.8405 29.9909 0
lfingers 7.12502 0 0
lthumb -2.19771 59.9594 0
rclavicle 1.91563e-15 -9.24349e-15 0
rhumerus -32.8355 4.71181 -81.727
rradius 32.9783 0 0
rwrist 3.84135 0 0
rhand -24.1523 -25.0894 0
rfingers 7.12502 0 0
rthumb 2.33029 -55.0564 0
2
root -2.95726 16.8257 -36.2792 3.72272 -0.423821 -2.76017
lfemur -18.1477 -3.68229 -7.40384
ltibia 37.6863 -0 0
lfoot -17.8348 6.70285 0.000798109
ltoes -25.8307 0 0
rfemur -19.14 0.0530374 14.7206
rtibia 40.448 -0 0
rfoot -23.1687 -2.73533 -0.000154716
rtoes -20.6664 0 0
lowerback 7.14169 2.55083 -1.97383
upperback -3.12513 3.30541 1.274
thorax -7.48412 1.7514 1.99692
lowerneck -4.66286 -4.03277 -6.83861
upperneck 4.68719 -5.29733 6.47604
head 2.76111 -2.57966 3.14786
lclavicle 6.48147e-15 -9.15652e-15 0
lhumerus -27.0541 -5.32485 89.6635
lradius 25.7346 -0 0
lwrist -30.6077 0 0
lhand -28.8429 29.9825 6.89058e-06
lfingers 7.12502 -0 0
lthumb -2.19999 59.951 6.67438e-06
rclavicle 6.48147e-15 -9.15652e-15 0
rhumerus -32.8204 4.66489 -81.6957
rradius 32.914 -0 0
rwrist 3.8234 0 0
rhand -24.1055 -25.1261 -0.000600052
rfingers 7.12502 -0 0
rthumb 2.37552 -55.0924 -0.000568562
3
root -2.95806 16.8223 -36.2826 3.65341 -0.438283 -2.74889
lfemur -18.1097 -3.50979 -7.43627
ltibia 37.7389 -0 0
lfoot -17.8625 6.62039 0.00155632
ltoes -25.5036 0 0
rfemur -19.1278 -0.0446928 14.7093
rtibia 40.5309 -0 0
rfoot -23.1721 -2.6078 -0.000301702
rtoes -20.3053 0 0
lowerback 7.25746 2.54451 -1.97518
upperback -3.10823 3.29499 1.27571
thorax -7.5327 1.74636 1.99723
lowerneck -4.64385 -4.02467 -6.83614
upperneck 4.67545 -5.28729 6.4762
head 2.75275 -2.57492 3.14808
lclavicle 6.48147e-15 -9.15652e-15 0
lhumerus -27.0392 -5.31862 89.6817
lradius 25.7327 -0 0
lwrist -30.5902 0 0
lhand -28.8452 29.9742 1.34366e-05
lfingers 7.12502 -0 0
lthumb -2.20227 59.9426 1.3015e-05
rclavicle 6.48147e-15 -9.15652e-15 0
rhumerus -32.8054 4.61797 -81.6643
rradius 32.8497 -0 0
rwrist 3.80545 0 0
rhand -24.0586 -25.1628 -0.00117011
rfingers 7.12502 -0 0
rthumb 2.42074 -55.1284 -0.0011087
4
root -2.95887 16.8189 -36.2861 3.5841 -0.452732 -2.73758
lfemur -18.0719 -3.33726 -7.46858
ltibia 37.7914 -0 0
lfoot -17.8903 6.53792 0.00227464
ltoes -25.1764 0 0
rfemur -19.1156 -0.142421 14.698
rtibia 40.6137 -0 0
rfoot -23.1756 -2.48028 -0.000440955
rtoes -19.9443 0 0
lowerback 7.37324 2.53819 -1.97655
upperback -3.09134 3.28457 1.27742
thorax -7.58128 1.74131 1.99754
lowerneck -4.62483 -4.01656 -6.83367
upperneck 4.66371 -5.27725 6.47635
head 2.74438 -2.57018 3.1483
lclavicle 6.48147e-15 -9.15652e-15 0
lhumerus -27.0244 -5.3124 89.6998
lradius 25.7309 -0 0
lwrist -30.5728 0 0
lhand -28.8476 29.9658 1.96382e-05
lfingers 7.12502 -0 0
lthumb -2.20455 59.9342 1.9022e-05
rclavicle 6.48147e-15 -9.15652e-15 0
rhumerus -32.7903 4.57103 -81.633
rradius 32.7853 -0 0
rwrist 3.7875 0 0
rhand -24.0118 -25.1995 -0.00171016
rfingers 7.12502 -0 0
rthumb 2.46597 -55.1644 -0.00162041
